<mxfile host="app.diagrams.net" modified="2022-05-06T08:51:52.714Z" agent="5.0 (Macintosh; Intel Mac OS X 10_15_7) AppleWebKit/537.36 (KHTML, like Gecko) Chrome/100.0.4896.127 Safari/537.36" etag="gAOP0sxphtNGRHziWt-v" version="18.0.0" type="github">
  <diagram id="m84tgNW1UKHsQRfDD_-_" name="Page-1">
    <mxGraphModel dx="1186" dy="2301" grid="1" gridSize="10" guides="1" tooltips="1" connect="1" arrows="1" fold="1" page="1" pageScale="1" pageWidth="900" pageHeight="1600" background="#CCFFE6" math="0" shadow="0">
      <root>
        <mxCell id="0" />
        <mxCell id="1" parent="0" />
        <mxCell id="SRUsyq4MPO7G54SHpxhM-17" value="远程仓" style="rounded=0;whiteSpace=wrap;html=1;fontStyle=1;fontSize=22;" parent="1" vertex="1">
          <mxGeometry x="80" y="-60" width="150" height="60" as="geometry" />
        </mxCell>
        <mxCell id="rBViTX0Mi73CIGoweLwb-4" value="master" style="rounded=1;whiteSpace=wrap;html=1;arcSize=40;fontColor=#FFFFFF;fillColor=#FF3333;strokeColor=#ff0000;glass=0;dashed=1;sketch=0;" parent="1" vertex="1">
          <mxGeometry x="120" y="40" width="120" height="40" as="geometry" />
        </mxCell>
        <mxCell id="rBViTX0Mi73CIGoweLwb-5" value="" style="edgeStyle=orthogonalEdgeStyle;html=1;verticalAlign=bottom;endArrow=open;endSize=8;strokeColor=#ff0000;rounded=1;sketch=0;curved=0;entryX=0;entryY=0.5;entryDx=0;entryDy=0;" parent="1" source="rBViTX0Mi73CIGoweLwb-4" target="rBViTX0Mi73CIGoweLwb-6" edge="1">
          <mxGeometry relative="1" as="geometry">
            <mxPoint x="180" y="180" as="targetPoint" />
          </mxGeometry>
        </mxCell>
        <mxCell id="rBViTX0Mi73CIGoweLwb-6" value="V1.0" style="rounded=1;whiteSpace=wrap;html=1;arcSize=40;fontColor=#FFFFFF;fillColor=#FF3333;strokeColor=#ff0000;glass=0;dashed=1;sketch=0;" parent="1" vertex="1">
          <mxGeometry x="400" y="40" width="120" height="40" as="geometry" />
        </mxCell>
        <mxCell id="rBViTX0Mi73CIGoweLwb-7" value="" style="edgeStyle=orthogonalEdgeStyle;html=1;verticalAlign=bottom;endArrow=open;endSize=8;strokeColor=#ff0000;rounded=1;sketch=0;curved=0;" parent="1" source="rBViTX0Mi73CIGoweLwb-6" target="rBViTX0Mi73CIGoweLwb-8" edge="1">
          <mxGeometry relative="1" as="geometry">
            <mxPoint x="440" y="180" as="targetPoint" />
            <Array as="points">
              <mxPoint x="700" y="60" />
              <mxPoint x="700" y="60" />
            </Array>
          </mxGeometry>
        </mxCell>
        <mxCell id="rBViTX0Mi73CIGoweLwb-8" value="V1.1" style="rounded=1;whiteSpace=wrap;html=1;arcSize=40;fontColor=#FFFFFF;fillColor=#FF3333;strokeColor=#ff0000;glass=0;dashed=1;sketch=0;" parent="1" vertex="1">
          <mxGeometry x="900" y="40" width="120" height="40" as="geometry" />
        </mxCell>
        <mxCell id="rBViTX0Mi73CIGoweLwb-9" value="" style="edgeStyle=orthogonalEdgeStyle;html=1;verticalAlign=bottom;endArrow=open;endSize=8;strokeColor=#ff0000;rounded=1;sketch=0;curved=0;" parent="1" source="rBViTX0Mi73CIGoweLwb-8" edge="1">
          <mxGeometry relative="1" as="geometry">
            <mxPoint x="1560" y="60" as="targetPoint" />
          </mxGeometry>
        </mxCell>
        <mxCell id="rBViTX0Mi73CIGoweLwb-14" value="release" style="rounded=1;whiteSpace=wrap;html=1;arcSize=40;fontColor=#000000;fillColor=#80FF00;strokeColor=#ff0000;glass=0;dashed=1;sketch=0;" parent="1" vertex="1">
          <mxGeometry x="120" y="140" width="120" height="40" as="geometry" />
        </mxCell>
        <mxCell id="rBViTX0Mi73CIGoweLwb-15" value="" style="edgeStyle=orthogonalEdgeStyle;html=1;verticalAlign=bottom;endArrow=open;endSize=8;strokeColor=#ff0000;rounded=1;sketch=0;curved=0;entryX=0;entryY=0.5;entryDx=0;entryDy=0;" parent="1" source="rBViTX0Mi73CIGoweLwb-14" target="rBViTX0Mi73CIGoweLwb-16" edge="1">
          <mxGeometry relative="1" as="geometry">
            <mxPoint x="180" y="280" as="targetPoint" />
          </mxGeometry>
        </mxCell>
        <mxCell id="rBViTX0Mi73CIGoweLwb-16" value="V1.0" style="rounded=1;whiteSpace=wrap;html=1;arcSize=40;fontColor=#000000;fillColor=#80FF00;strokeColor=#ff0000;glass=0;dashed=1;sketch=0;" parent="1" vertex="1">
          <mxGeometry x="400" y="140" width="120" height="40" as="geometry" />
        </mxCell>
        <mxCell id="rBViTX0Mi73CIGoweLwb-17" value="" style="edgeStyle=orthogonalEdgeStyle;html=1;verticalAlign=bottom;endArrow=open;endSize=8;strokeColor=#ff0000;rounded=1;sketch=0;curved=0;" parent="1" source="rBViTX0Mi73CIGoweLwb-16" target="rBViTX0Mi73CIGoweLwb-18" edge="1">
          <mxGeometry relative="1" as="geometry">
            <mxPoint x="440" y="280" as="targetPoint" />
            <Array as="points">
              <mxPoint x="700" y="160" />
              <mxPoint x="700" y="160" />
            </Array>
          </mxGeometry>
        </mxCell>
        <mxCell id="rBViTX0Mi73CIGoweLwb-18" value="V1.1" style="rounded=1;whiteSpace=wrap;html=1;arcSize=40;fontColor=#000000;fillColor=#80FF00;strokeColor=#ff0000;glass=0;dashed=1;sketch=0;" parent="1" vertex="1">
          <mxGeometry x="900" y="140" width="120" height="40" as="geometry" />
        </mxCell>
        <mxCell id="rBViTX0Mi73CIGoweLwb-19" value="" style="edgeStyle=orthogonalEdgeStyle;html=1;verticalAlign=bottom;endArrow=open;endSize=8;strokeColor=#ff0000;rounded=1;sketch=0;curved=0;" parent="1" source="rBViTX0Mi73CIGoweLwb-18" edge="1">
          <mxGeometry relative="1" as="geometry">
            <mxPoint x="1560" y="160" as="targetPoint" />
          </mxGeometry>
        </mxCell>
        <mxCell id="rBViTX0Mi73CIGoweLwb-20" value="develop" style="rounded=1;whiteSpace=wrap;html=1;arcSize=40;fontColor=#000000;fillColor=#00FFFF;strokeColor=#ff0000;glass=0;dashed=1;sketch=0;" parent="1" vertex="1">
          <mxGeometry x="120" y="240" width="120" height="40" as="geometry" />
        </mxCell>
        <mxCell id="rBViTX0Mi73CIGoweLwb-21" value="" style="edgeStyle=orthogonalEdgeStyle;html=1;verticalAlign=bottom;endArrow=open;endSize=8;strokeColor=#ff0000;rounded=1;sketch=0;curved=0;entryX=0;entryY=0.5;entryDx=0;entryDy=0;" parent="1" source="rBViTX0Mi73CIGoweLwb-20" target="rBViTX0Mi73CIGoweLwb-22" edge="1">
          <mxGeometry relative="1" as="geometry">
            <mxPoint x="180" y="380" as="targetPoint" />
          </mxGeometry>
        </mxCell>
        <mxCell id="rBViTX0Mi73CIGoweLwb-22" value="V1.x" style="rounded=1;whiteSpace=wrap;html=1;arcSize=40;fontColor=#000000;fillColor=#00FFFF;strokeColor=#ff0000;glass=0;dashed=1;sketch=0;" parent="1" vertex="1">
          <mxGeometry x="690" y="240" width="120" height="40" as="geometry" />
        </mxCell>
        <mxCell id="rBViTX0Mi73CIGoweLwb-23" value="" style="edgeStyle=orthogonalEdgeStyle;html=1;verticalAlign=bottom;endArrow=open;endSize=8;strokeColor=#ff0000;rounded=1;sketch=0;curved=0;" parent="1" source="rBViTX0Mi73CIGoweLwb-22" target="rBViTX0Mi73CIGoweLwb-24" edge="1">
          <mxGeometry relative="1" as="geometry">
            <mxPoint x="440" y="380" as="targetPoint" />
            <Array as="points">
              <mxPoint x="700" y="260" />
              <mxPoint x="700" y="260" />
            </Array>
          </mxGeometry>
        </mxCell>
        <mxCell id="rBViTX0Mi73CIGoweLwb-24" value="V1.1-V1.x" style="rounded=1;whiteSpace=wrap;html=1;arcSize=40;fontColor=#000000;fillColor=#00FFFF;strokeColor=#ff0000;glass=0;dashed=1;sketch=0;" parent="1" vertex="1">
          <mxGeometry x="1280" y="240" width="120" height="40" as="geometry" />
        </mxCell>
        <mxCell id="rBViTX0Mi73CIGoweLwb-25" value="" style="edgeStyle=orthogonalEdgeStyle;html=1;verticalAlign=bottom;endArrow=open;endSize=8;strokeColor=#ff0000;rounded=1;sketch=0;curved=0;" parent="1" source="rBViTX0Mi73CIGoweLwb-24" edge="1">
          <mxGeometry relative="1" as="geometry">
            <mxPoint x="1550" y="260" as="targetPoint" />
          </mxGeometry>
        </mxCell>
        <mxCell id="rBViTX0Mi73CIGoweLwb-26" value="本地A" style="rounded=0;whiteSpace=wrap;html=1;fontStyle=1;fontSize=22;" parent="1" vertex="1">
          <mxGeometry x="80" y="330" width="150" height="60" as="geometry" />
        </mxCell>
        <mxCell id="rBViTX0Mi73CIGoweLwb-27" value="master" style="rounded=1;whiteSpace=wrap;html=1;arcSize=40;fontColor=#FFFFFF;fillColor=#FF3333;strokeColor=#ff0000;glass=0;dashed=1;sketch=0;" parent="1" vertex="1">
          <mxGeometry x="120" y="420" width="120" height="40" as="geometry" />
        </mxCell>
        <mxCell id="rBViTX0Mi73CIGoweLwb-28" value="" style="edgeStyle=orthogonalEdgeStyle;html=1;verticalAlign=bottom;endArrow=open;endSize=8;strokeColor=#ff0000;rounded=1;sketch=0;curved=0;entryX=0;entryY=0.5;entryDx=0;entryDy=0;" parent="1" source="rBViTX0Mi73CIGoweLwb-27" target="rBViTX0Mi73CIGoweLwb-29" edge="1">
          <mxGeometry relative="1" as="geometry">
            <mxPoint x="180" y="570" as="targetPoint" />
          </mxGeometry>
        </mxCell>
        <mxCell id="rBViTX0Mi73CIGoweLwb-29" value="V1.0" style="rounded=1;whiteSpace=wrap;html=1;arcSize=40;fontColor=#FFFFFF;fillColor=#FF3333;strokeColor=#ff0000;glass=0;dashed=1;sketch=0;" parent="1" vertex="1">
          <mxGeometry x="490" y="420" width="120" height="40" as="geometry" />
        </mxCell>
        <mxCell id="rBViTX0Mi73CIGoweLwb-30" value="" style="edgeStyle=orthogonalEdgeStyle;html=1;verticalAlign=bottom;endArrow=open;endSize=8;strokeColor=#ff0000;rounded=1;sketch=0;curved=0;exitX=1;exitY=0.5;exitDx=0;exitDy=0;entryX=0;entryY=0.5;entryDx=0;entryDy=0;" parent="1" source="rBViTX0Mi73CIGoweLwb-29" target="rBViTX0Mi73CIGoweLwb-31" edge="1">
          <mxGeometry relative="1" as="geometry">
            <mxPoint x="1090" y="440" as="targetPoint" />
            <Array as="points" />
          </mxGeometry>
        </mxCell>
        <mxCell id="rBViTX0Mi73CIGoweLwb-31" value="V1.1" style="rounded=1;whiteSpace=wrap;html=1;arcSize=40;fontColor=#FFFFFF;fillColor=#FF3333;strokeColor=#ff0000;glass=0;dashed=1;sketch=0;" parent="1" vertex="1">
          <mxGeometry x="1100" y="420" width="120" height="40" as="geometry" />
        </mxCell>
        <mxCell id="rBViTX0Mi73CIGoweLwb-32" value="" style="edgeStyle=orthogonalEdgeStyle;html=1;verticalAlign=bottom;endArrow=open;endSize=8;strokeColor=#ff0000;rounded=1;sketch=0;curved=0;exitX=1;exitY=0.5;exitDx=0;exitDy=0;" parent="1" source="rBViTX0Mi73CIGoweLwb-31" edge="1">
          <mxGeometry relative="1" as="geometry">
            <mxPoint x="1560" y="440" as="targetPoint" />
            <Array as="points">
              <mxPoint x="1550" y="440" />
              <mxPoint x="1550" y="440" />
            </Array>
          </mxGeometry>
        </mxCell>
        <mxCell id="rBViTX0Mi73CIGoweLwb-33" value="release" style="rounded=1;whiteSpace=wrap;html=1;arcSize=40;fontColor=#000000;fillColor=#80FF00;strokeColor=#ff0000;glass=0;dashed=1;sketch=0;" parent="1" vertex="1">
          <mxGeometry x="120" y="500" width="120" height="40" as="geometry" />
        </mxCell>
        <mxCell id="rBViTX0Mi73CIGoweLwb-34" value="" style="edgeStyle=orthogonalEdgeStyle;html=1;verticalAlign=bottom;endArrow=open;endSize=8;strokeColor=#ff0000;rounded=1;sketch=0;curved=0;entryX=0;entryY=0.5;entryDx=0;entryDy=0;" parent="1" source="rBViTX0Mi73CIGoweLwb-33" target="rBViTX0Mi73CIGoweLwb-35" edge="1">
          <mxGeometry relative="1" as="geometry">
            <mxPoint x="180" y="640" as="targetPoint" />
          </mxGeometry>
        </mxCell>
        <mxCell id="rBViTX0Mi73CIGoweLwb-35" value="V1.0" style="rounded=1;whiteSpace=wrap;html=1;arcSize=40;fontColor=#000000;fillColor=#80FF00;strokeColor=#ff0000;glass=0;dashed=1;sketch=0;" parent="1" vertex="1">
          <mxGeometry x="490" y="500" width="120" height="40" as="geometry" />
        </mxCell>
        <mxCell id="rBViTX0Mi73CIGoweLwb-36" value="" style="edgeStyle=orthogonalEdgeStyle;html=1;verticalAlign=bottom;endArrow=open;endSize=8;strokeColor=#ff0000;rounded=1;sketch=0;curved=0;" parent="1" source="rBViTX0Mi73CIGoweLwb-35" target="rBViTX0Mi73CIGoweLwb-37" edge="1">
          <mxGeometry relative="1" as="geometry">
            <mxPoint x="640" y="640" as="targetPoint" />
            <Array as="points">
              <mxPoint x="900" y="520" />
              <mxPoint x="900" y="520" />
            </Array>
          </mxGeometry>
        </mxCell>
        <mxCell id="rBViTX0Mi73CIGoweLwb-37" value="V1.1" style="rounded=1;whiteSpace=wrap;html=1;arcSize=40;fontColor=#000000;fillColor=#80FF00;strokeColor=#ff0000;glass=0;dashed=1;sketch=0;" parent="1" vertex="1">
          <mxGeometry x="1100" y="500" width="120" height="40" as="geometry" />
        </mxCell>
        <mxCell id="rBViTX0Mi73CIGoweLwb-39" value="develop" style="rounded=1;whiteSpace=wrap;html=1;arcSize=40;fontColor=#000000;fillColor=#00FFFF;strokeColor=#ff0000;glass=0;dashed=1;sketch=0;" parent="1" vertex="1">
          <mxGeometry x="120" y="570" width="120" height="40" as="geometry" />
        </mxCell>
        <mxCell id="rBViTX0Mi73CIGoweLwb-40" value="" style="edgeStyle=orthogonalEdgeStyle;html=1;verticalAlign=bottom;endArrow=open;endSize=8;strokeColor=#ff0000;rounded=1;sketch=0;curved=0;entryX=0;entryY=0.5;entryDx=0;entryDy=0;" parent="1" source="rBViTX0Mi73CIGoweLwb-39" target="rBViTX0Mi73CIGoweLwb-41" edge="1">
          <mxGeometry relative="1" as="geometry">
            <mxPoint x="180" y="710" as="targetPoint" />
          </mxGeometry>
        </mxCell>
        <mxCell id="rBViTX0Mi73CIGoweLwb-41" value="V1.0-v1.1" style="rounded=1;whiteSpace=wrap;html=1;arcSize=40;fontColor=#000000;fillColor=#33FFFF;strokeColor=#ff0000;glass=0;dashed=1;sketch=0;" parent="1" vertex="1">
          <mxGeometry x="610" y="570" width="120" height="40" as="geometry" />
        </mxCell>
        <mxCell id="rBViTX0Mi73CIGoweLwb-42" value="" style="edgeStyle=orthogonalEdgeStyle;html=1;verticalAlign=bottom;endArrow=open;endSize=8;strokeColor=#ff0000;rounded=1;sketch=0;curved=0;" parent="1" source="rBViTX0Mi73CIGoweLwb-41" target="rBViTX0Mi73CIGoweLwb-43" edge="1">
          <mxGeometry relative="1" as="geometry">
            <mxPoint x="640" y="710" as="targetPoint" />
            <Array as="points">
              <mxPoint x="900" y="590" />
              <mxPoint x="900" y="590" />
            </Array>
          </mxGeometry>
        </mxCell>
        <mxCell id="rBViTX0Mi73CIGoweLwb-43" value="V1.1-V1.x" style="rounded=1;whiteSpace=wrap;html=1;arcSize=40;fontColor=#000000;fillColor=#00FFFF;strokeColor=#ff0000;glass=0;dashed=1;sketch=0;" parent="1" vertex="1">
          <mxGeometry x="1280" y="570" width="120" height="40" as="geometry" />
        </mxCell>
        <mxCell id="rBViTX0Mi73CIGoweLwb-44" value="" style="edgeStyle=orthogonalEdgeStyle;html=1;verticalAlign=bottom;endArrow=open;endSize=8;strokeColor=#ff0000;rounded=1;sketch=0;curved=0;" parent="1" source="rBViTX0Mi73CIGoweLwb-43" edge="1">
          <mxGeometry relative="1" as="geometry">
            <mxPoint x="1560" y="590" as="targetPoint" />
          </mxGeometry>
        </mxCell>
        <mxCell id="rBViTX0Mi73CIGoweLwb-45" value="feature/v1.0/xx1" style="rounded=1;whiteSpace=wrap;html=1;arcSize=40;fontColor=#000000;fillColor=#ffffc0;strokeColor=#ff0000;glass=0;dashed=1;sketch=0;" parent="1" vertex="1">
          <mxGeometry x="320" y="650" width="120" height="40" as="geometry" />
        </mxCell>
        <mxCell id="rBViTX0Mi73CIGoweLwb-51" value="hotfix/xx-xxx" style="rounded=1;whiteSpace=wrap;html=1;arcSize=40;fontColor=#ffffff;fillColor=#e51400;strokeColor=#B20000;glass=0;dashed=1;sketch=0;" parent="1" vertex="1">
          <mxGeometry x="810" y="770" width="120" height="40" as="geometry" />
        </mxCell>
        <mxCell id="rBViTX0Mi73CIGoweLwb-64" value="feature/v1.0/xx2" style="rounded=1;whiteSpace=wrap;html=1;arcSize=40;fontColor=#000000;fillColor=#ffffc0;strokeColor=#ff0000;glass=0;dashed=1;sketch=0;" parent="1" vertex="1">
          <mxGeometry x="440" y="720" width="120" height="40" as="geometry" />
        </mxCell>
        <mxCell id="rBViTX0Mi73CIGoweLwb-71" value="feature/v1.1/xx3" style="rounded=1;whiteSpace=wrap;html=1;arcSize=40;fontColor=#000000;fillColor=#ffffc0;strokeColor=#ff0000;glass=0;dashed=1;sketch=0;" parent="1" vertex="1">
          <mxGeometry x="660" y="750" width="120" height="40" as="geometry" />
        </mxCell>
        <mxCell id="rBViTX0Mi73CIGoweLwb-72" value="merge" style="html=1;verticalAlign=bottom;startArrow=oval;startFill=1;endArrow=block;startSize=8;rounded=1;sketch=0;curved=0;exitX=1;exitY=0.5;exitDx=0;exitDy=0;entryX=0.313;entryY=1.025;entryDx=0;entryDy=0;entryPerimeter=0;strokeWidth=3;" parent="1" source="rBViTX0Mi73CIGoweLwb-45" target="rBViTX0Mi73CIGoweLwb-41" edge="1">
          <mxGeometry x="0.0468" y="-3" width="60" relative="1" as="geometry">
            <mxPoint x="460" y="550" as="sourcePoint" />
            <mxPoint x="520" y="550" as="targetPoint" />
            <Array as="points">
              <mxPoint x="500" y="650" />
            </Array>
            <mxPoint as="offset" />
          </mxGeometry>
        </mxCell>
        <mxCell id="rBViTX0Mi73CIGoweLwb-73" value="merge" style="html=1;verticalAlign=bottom;startArrow=oval;startFill=1;endArrow=block;startSize=8;rounded=1;sketch=0;curved=0;exitX=1;exitY=0.5;exitDx=0;exitDy=0;entryX=0.5;entryY=1;entryDx=0;entryDy=0;strokeWidth=3;" parent="1" source="rBViTX0Mi73CIGoweLwb-64" target="rBViTX0Mi73CIGoweLwb-41" edge="1">
          <mxGeometry width="60" relative="1" as="geometry">
            <mxPoint x="450" y="670" as="sourcePoint" />
            <mxPoint x="650" y="620" as="targetPoint" />
            <Array as="points" />
          </mxGeometry>
        </mxCell>
        <mxCell id="rBViTX0Mi73CIGoweLwb-74" value="merge" style="html=1;verticalAlign=bottom;startArrow=oval;startFill=1;endArrow=block;startSize=8;rounded=1;sketch=0;curved=0;exitX=0.5;exitY=0;exitDx=0;exitDy=0;entryX=0.604;entryY=1.05;entryDx=0;entryDy=0;entryPerimeter=0;strokeWidth=3;" parent="1" source="rBViTX0Mi73CIGoweLwb-71" target="rBViTX0Mi73CIGoweLwb-41" edge="1">
          <mxGeometry width="60" relative="1" as="geometry">
            <mxPoint x="570" y="720" as="sourcePoint" />
            <mxPoint x="680" y="620" as="targetPoint" />
            <Array as="points" />
          </mxGeometry>
        </mxCell>
        <mxCell id="rBViTX0Mi73CIGoweLwb-79" value="" style="endArrow=block;endFill=1;html=1;edgeStyle=orthogonalEdgeStyle;align=left;verticalAlign=top;rounded=1;sketch=0;fontColor=#FF601C;curved=0;entryX=0.5;entryY=1;entryDx=0;entryDy=0;exitX=0.5;exitY=0;exitDx=0;exitDy=0;fillColor=#0050ef;strokeColor=#001DBC;strokeWidth=5;" parent="1" source="rBViTX0Mi73CIGoweLwb-41" target="rBViTX0Mi73CIGoweLwb-22" edge="1">
          <mxGeometry x="0.0303" relative="1" as="geometry">
            <mxPoint x="410" y="410" as="sourcePoint" />
            <mxPoint x="570" y="410" as="targetPoint" />
            <Array as="points">
              <mxPoint x="670" y="360" />
              <mxPoint x="750" y="360" />
            </Array>
            <mxPoint as="offset" />
          </mxGeometry>
        </mxCell>
        <mxCell id="rBViTX0Mi73CIGoweLwb-80" value="push正式提测" style="edgeLabel;resizable=0;html=1;align=left;verticalAlign=bottom;rounded=0;glass=0;dashed=1;sketch=0;fontColor=#FF601C;strokeColor=#E6E6E6;fontSize=14;" parent="rBViTX0Mi73CIGoweLwb-79" connectable="0" vertex="1">
          <mxGeometry x="-1" relative="1" as="geometry">
            <mxPoint x="-40" y="-180" as="offset" />
          </mxGeometry>
        </mxCell>
        <mxCell id="rBViTX0Mi73CIGoweLwb-81" value="" style="endArrow=block;endFill=1;html=1;edgeStyle=orthogonalEdgeStyle;align=left;verticalAlign=top;rounded=1;sketch=0;fontColor=#FF601C;curved=0;exitX=0;exitY=0.25;exitDx=0;exitDy=0;fillColor=#0050ef;strokeColor=#001DBC;strokeWidth=5;" parent="1" source="rBViTX0Mi73CIGoweLwb-35" edge="1">
          <mxGeometry x="-0.3077" y="-10" relative="1" as="geometry">
            <mxPoint x="410" y="390" as="sourcePoint" />
            <mxPoint x="460" y="180" as="targetPoint" />
            <Array as="points">
              <mxPoint x="460" y="510" />
              <mxPoint x="460" y="180" />
            </Array>
            <mxPoint as="offset" />
          </mxGeometry>
        </mxCell>
        <mxCell id="rBViTX0Mi73CIGoweLwb-82" value="push发布前提测" style="edgeLabel;resizable=0;html=1;align=left;verticalAlign=bottom;rounded=0;glass=0;dashed=1;sketch=0;fontColor=#FF601C;strokeColor=#E6E6E6;fontSize=14;" parent="rBViTX0Mi73CIGoweLwb-81" connectable="0" vertex="1">
          <mxGeometry x="-1" relative="1" as="geometry">
            <mxPoint x="-80" y="-190" as="offset" />
          </mxGeometry>
        </mxCell>
        <mxCell id="rBViTX0Mi73CIGoweLwb-83" value="" style="endArrow=block;endFill=1;html=1;edgeStyle=orthogonalEdgeStyle;align=left;verticalAlign=top;rounded=1;sketch=0;fontColor=#FF601C;curved=0;exitX=0.5;exitY=0;exitDx=0;exitDy=0;entryX=0.5;entryY=1;entryDx=0;entryDy=0;strokeWidth=4;fillColor=#0050ef;strokeColor=#001DBC;" parent="1" source="rBViTX0Mi73CIGoweLwb-35" target="rBViTX0Mi73CIGoweLwb-29" edge="1">
          <mxGeometry x="-1" relative="1" as="geometry">
            <mxPoint x="410" y="380" as="sourcePoint" />
            <mxPoint x="550" y="470" as="targetPoint" />
          </mxGeometry>
        </mxCell>
        <mxCell id="rBViTX0Mi73CIGoweLwb-84" value="merge" style="edgeLabel;resizable=0;html=1;align=left;verticalAlign=bottom;rounded=0;glass=0;dashed=1;sketch=0;fontColor=#FF601C;strokeColor=#E6E6E6;" parent="rBViTX0Mi73CIGoweLwb-83" connectable="0" vertex="1">
          <mxGeometry x="-1" relative="1" as="geometry">
            <mxPoint x="-20" y="-10" as="offset" />
          </mxGeometry>
        </mxCell>
        <mxCell id="rBViTX0Mi73CIGoweLwb-85" value="" style="endArrow=block;endFill=1;html=1;edgeStyle=orthogonalEdgeStyle;align=left;verticalAlign=top;rounded=1;sketch=0;fontColor=#FF601C;curved=0;entryX=1;entryY=0.5;entryDx=0;entryDy=0;exitX=0.5;exitY=0;exitDx=0;exitDy=0;fillColor=#0050ef;strokeColor=#001DBC;strokeWidth=5;" parent="1" source="rBViTX0Mi73CIGoweLwb-29" target="rBViTX0Mi73CIGoweLwb-6" edge="1">
          <mxGeometry x="-1" relative="1" as="geometry">
            <mxPoint x="410" y="320" as="sourcePoint" />
            <mxPoint x="570" y="320" as="targetPoint" />
            <Array as="points">
              <mxPoint x="550" y="60" />
            </Array>
          </mxGeometry>
        </mxCell>
        <mxCell id="rBViTX0Mi73CIGoweLwb-86" value="push发布" style="edgeLabel;resizable=0;html=1;align=left;verticalAlign=bottom;rounded=0;glass=0;dashed=1;sketch=0;fontColor=#FF601C;strokeColor=#E6E6E6;fontSize=14;" parent="rBViTX0Mi73CIGoweLwb-85" connectable="0" vertex="1">
          <mxGeometry x="-1" relative="1" as="geometry">
            <mxPoint x="-20" y="-70" as="offset" />
          </mxGeometry>
        </mxCell>
        <mxCell id="rBViTX0Mi73CIGoweLwb-87" value="" style="endArrow=block;endFill=1;html=1;edgeStyle=orthogonalEdgeStyle;align=left;verticalAlign=top;rounded=1;sketch=0;fontColor=#FF601C;curved=0;exitX=1;exitY=0.75;exitDx=0;exitDy=0;fillColor=#e51400;strokeColor=#FF0000;strokeWidth=4;" parent="1" source="rBViTX0Mi73CIGoweLwb-29" edge="1">
          <mxGeometry x="-1" relative="1" as="geometry">
            <mxPoint x="570" y="580" as="sourcePoint" />
            <mxPoint x="870" y="766" as="targetPoint" />
            <Array as="points">
              <mxPoint x="610" y="480" />
              <mxPoint x="870" y="480" />
              <mxPoint x="870" y="766" />
            </Array>
          </mxGeometry>
        </mxCell>
        <mxCell id="rBViTX0Mi73CIGoweLwb-88" value="checkout -b" style="edgeLabel;resizable=0;html=1;align=left;verticalAlign=bottom;rounded=0;glass=0;dashed=1;sketch=0;fontColor=#FF601C;strokeColor=#E6E6E6;fontStyle=1;fontSize=14;" parent="rBViTX0Mi73CIGoweLwb-87" connectable="0" vertex="1">
          <mxGeometry x="-1" relative="1" as="geometry">
            <mxPoint x="130" y="40" as="offset" />
          </mxGeometry>
        </mxCell>
        <mxCell id="rBViTX0Mi73CIGoweLwb-89" value="" style="endArrow=block;endFill=1;html=1;edgeStyle=orthogonalEdgeStyle;align=left;verticalAlign=top;rounded=0;sketch=0;fontColor=#FF601C;endWidth=28;fillColor=#e51400;strokeColor=#FF0000;strokeWidth=4;exitX=0.413;exitY=-0.1;exitDx=0;exitDy=0;exitPerimeter=0;" parent="1" source="rBViTX0Mi73CIGoweLwb-51" edge="1">
          <mxGeometry x="-1" relative="1" as="geometry">
            <mxPoint x="860" y="760" as="sourcePoint" />
            <mxPoint x="600" y="520" as="targetPoint" />
            <Array as="points">
              <mxPoint x="860" y="760" />
              <mxPoint x="810" y="760" />
              <mxPoint x="810" y="550" />
              <mxPoint x="650" y="550" />
              <mxPoint x="650" y="520" />
            </Array>
          </mxGeometry>
        </mxCell>
        <mxCell id="rBViTX0Mi73CIGoweLwb-90" value="merge" style="edgeLabel;resizable=0;html=1;align=left;verticalAlign=bottom;rounded=0;glass=0;dashed=1;sketch=0;fontColor=#FF601C;strokeColor=#E6E6E6;fontSize=14;" parent="rBViTX0Mi73CIGoweLwb-89" connectable="0" vertex="1">
          <mxGeometry x="-1" relative="1" as="geometry">
            <mxPoint x="-70" y="-130" as="offset" />
          </mxGeometry>
        </mxCell>
        <mxCell id="rBViTX0Mi73CIGoweLwb-91" value="" style="edgeStyle=orthogonalEdgeStyle;html=1;verticalAlign=bottom;endArrow=open;endSize=8;strokeColor=#ff0000;rounded=1;sketch=0;curved=0;exitX=1;exitY=0.5;exitDx=0;exitDy=0;" parent="1" source="rBViTX0Mi73CIGoweLwb-37" edge="1">
          <mxGeometry relative="1" as="geometry">
            <mxPoint x="1560" y="520" as="targetPoint" />
            <mxPoint x="1230" y="430" as="sourcePoint" />
            <Array as="points">
              <mxPoint x="1560" y="520" />
            </Array>
          </mxGeometry>
        </mxCell>
        <mxCell id="rBViTX0Mi73CIGoweLwb-93" value="本地B" style="rounded=0;whiteSpace=wrap;html=1;fontStyle=1;fontSize=22;" parent="1" vertex="1">
          <mxGeometry x="80" y="830" width="150" height="60" as="geometry" />
        </mxCell>
        <mxCell id="rBViTX0Mi73CIGoweLwb-94" value="本地C" style="rounded=0;whiteSpace=wrap;html=1;fontStyle=1;fontSize=22;" parent="1" vertex="1">
          <mxGeometry x="80" y="930" width="150" height="60" as="geometry" />
        </mxCell>
        <mxCell id="rBViTX0Mi73CIGoweLwb-102" value="pull" style="html=1;verticalAlign=bottom;endArrow=block;rounded=0;sketch=0;fontSize=14;fontColor=#FF8000;strokeColor=#d79b00;strokeWidth=2;entryX=0.25;entryY=0;entryDx=0;entryDy=0;fillColor=#ffcd28;gradientColor=#ffa500;" parent="1" target="rBViTX0Mi73CIGoweLwb-45" edge="1">
          <mxGeometry width="80" relative="1" as="geometry">
            <mxPoint x="310" y="520" as="sourcePoint" />
            <mxPoint x="730" y="710" as="targetPoint" />
          </mxGeometry>
        </mxCell>
        <mxCell id="rBViTX0Mi73CIGoweLwb-103" value="" style="html=1;verticalAlign=bottom;endArrow=block;rounded=0;sketch=0;fontSize=14;fontColor=#FF8000;strokeColor=#d79b00;strokeWidth=4;exitX=0.5;exitY=0;exitDx=0;exitDy=0;entryX=0;entryY=1;entryDx=0;entryDy=0;fillColor=#ffcd28;gradientColor=#ffa500;" parent="1" source="rBViTX0Mi73CIGoweLwb-45" target="rBViTX0Mi73CIGoweLwb-35" edge="1">
          <mxGeometry width="80" relative="1" as="geometry">
            <mxPoint x="650" y="710" as="sourcePoint" />
            <mxPoint x="730" y="710" as="targetPoint" />
          </mxGeometry>
        </mxCell>
        <mxCell id="rBViTX0Mi73CIGoweLwb-104" value="merge" style="edgeLabel;html=1;align=center;verticalAlign=middle;resizable=0;points=[];fontSize=14;fontColor=#FF8000;" parent="rBViTX0Mi73CIGoweLwb-103" vertex="1" connectable="0">
          <mxGeometry x="-0.213" y="-1" relative="1" as="geometry">
            <mxPoint x="-1" as="offset" />
          </mxGeometry>
        </mxCell>
        <mxCell id="rBViTX0Mi73CIGoweLwb-105" value="pull" style="html=1;verticalAlign=bottom;endArrow=block;rounded=0;sketch=0;fontSize=14;fontColor=#FF8000;strokeColor=#d79b00;strokeWidth=2;entryX=0.331;entryY=-0.051;entryDx=0;entryDy=0;fillColor=#ffcd28;gradientColor=#ffa500;entryPerimeter=0;" parent="1" target="rBViTX0Mi73CIGoweLwb-64" edge="1">
          <mxGeometry x="0.2052" y="-2" width="80" relative="1" as="geometry">
            <mxPoint x="410" y="520" as="sourcePoint" />
            <mxPoint x="360" y="660" as="targetPoint" />
            <mxPoint y="-1" as="offset" />
          </mxGeometry>
        </mxCell>
        <mxCell id="rBViTX0Mi73CIGoweLwb-106" value="" style="html=1;verticalAlign=bottom;endArrow=block;rounded=0;sketch=0;fontSize=14;fontColor=#FF8000;strokeColor=#d79b00;strokeWidth=4;exitX=0.5;exitY=0;exitDx=0;exitDy=0;entryX=0.375;entryY=1.066;entryDx=0;entryDy=0;fillColor=#ffcd28;gradientColor=#ffa500;entryPerimeter=0;" parent="1" source="rBViTX0Mi73CIGoweLwb-64" target="rBViTX0Mi73CIGoweLwb-35" edge="1">
          <mxGeometry width="80" relative="1" as="geometry">
            <mxPoint x="390" y="660" as="sourcePoint" />
            <mxPoint x="500" y="550" as="targetPoint" />
          </mxGeometry>
        </mxCell>
        <mxCell id="rBViTX0Mi73CIGoweLwb-107" value="merge" style="edgeLabel;html=1;align=center;verticalAlign=middle;resizable=0;points=[];fontSize=14;fontColor=#FF8000;" parent="rBViTX0Mi73CIGoweLwb-106" vertex="1" connectable="0">
          <mxGeometry x="-0.213" y="-1" relative="1" as="geometry">
            <mxPoint x="-1" as="offset" />
          </mxGeometry>
        </mxCell>
        <mxCell id="rBViTX0Mi73CIGoweLwb-108" value="pull" style="html=1;verticalAlign=bottom;endArrow=block;rounded=0;sketch=0;fontSize=14;fontColor=#FF8000;strokeColor=#d79b00;strokeWidth=2;entryX=0;entryY=0;entryDx=0;entryDy=0;fillColor=#ffcd28;gradientColor=#ffa500;exitX=0.571;exitY=1.037;exitDx=0;exitDy=0;exitPerimeter=0;" parent="1" source="rBViTX0Mi73CIGoweLwb-35" target="rBViTX0Mi73CIGoweLwb-71" edge="1">
          <mxGeometry x="0.6143" width="80" relative="1" as="geometry">
            <mxPoint x="420" y="530" as="sourcePoint" />
            <mxPoint x="489.72" y="727.96" as="targetPoint" />
            <mxPoint as="offset" />
          </mxGeometry>
        </mxCell>
      </root>
    </mxGraphModel>
  </diagram>
</mxfile>
